<?xml version="1.0" standalone="no"?>
<!DOCTYPE svg PUBLIC "-//W3C//DTD SVG 20010904//EN"
 "http://www.w3.org/TR/2001/REC-SVG-20010904/DTD/svg10.dtd">
<svg version="1.0" xmlns="http://www.w3.org/2000/svg"
 width="692.000000pt" height="1280.000000pt" viewBox="0 0 692.000000 1280.000000"
 preserveAspectRatio="xMidYMid meet">
<metadata>
Created by potrace 1.15, written by Peter Selinger 2001-2017
</metadata>
<g transform="translate(0.000000,1280.000000) scale(0.100000,-0.100000)"
fill="##FF0000" stroke="none">
<path d="M3506 12724 c-88 -21 -234 -97 -298 -154 -64 -57 -122 -161 -159
-283 -19 -62 -21 -87 -16 -179 6 -92 4 -106 -8 -102 -32 13 -66 -6 -82 -44
-20 -49 -11 -190 18 -284 25 -78 78 -148 114 -148 24 0 35 -17 35 -53 0 -40
20 -96 45 -126 25 -28 25 -32 25 -206 0 -171 -1 -177 -24 -208 -14 -18 -27
-43 -31 -57 -5 -19 -69 -68 -252 -194 l-246 -168 -77 -5 c-68 -5 -83 -3 -113
16 -19 12 -41 19 -49 16 -38 -15 -275 -291 -341 -396 -114 -183 -197 -465
-197 -671 0 -43 -6 -64 -30 -101 -23 -36 -30 -59 -30 -97 0 -26 -9 -70 -20
-96 -27 -62 -59 -177 -115 -419 -31 -130 -68 -255 -106 -355 -52 -137 -60
-169 -69 -265 -6 -61 -17 -162 -26 -226 -17 -128 -15 -491 5 -769 5 -80 10
-311 11 -515 l1 -370 -37 -130 -37 -130 12 -170 c11 -154 17 -190 65 -367 58
-215 70 -237 134 -238 29 0 32 -3 32 -32 0 -36 42 -113 70 -128 21 -11 60 2
60 20 0 6 5 10 10 10 6 0 10 -7 10 -15 0 -25 45 -40 76 -27 27 13 54 66 54
106 0 17 7 26 25 30 38 10 72 64 94 151 29 116 91 439 91 474 0 17 3 31 7 31
4 0 25 -18 48 -39 26 -26 57 -44 87 -52 44 -12 50 -11 77 9 l30 22 5 -53 c3
-28 8 -81 11 -116 17 -178 141 -634 355 -1301 55 -172 60 -198 77 -365 30
-296 19 -529 -30 -690 -19 -62 -22 -93 -22 -260 1 -131 6 -226 19 -305 26
-167 65 -349 81 -374 21 -32 34 -94 55 -249 11 -78 43 -239 71 -357 50 -206
52 -221 53 -360 1 -130 -1 -150 -21 -194 -13 -28 -23 -68 -23 -95 0 -43 -7
-55 -101 -176 -123 -159 -152 -190 -204 -215 -22 -11 -72 -52 -112 -92 -66
-68 -73 -78 -85 -137 l-12 -63 27 -24 c18 -16 27 -33 27 -54 0 -24 7 -35 30
-48 16 -9 30 -20 30 -24 0 -18 35 -38 66 -38 22 0 34 -5 34 -13 0 -21 34 -47
60 -47 13 0 34 10 46 21 l23 22 31 -27 c55 -45 133 -33 217 35 23 19 67 49 97
68 31 19 78 62 105 95 27 34 94 101 149 150 55 49 106 100 113 113 l13 24 14
-28 c24 -47 45 -65 107 -94 46 -20 76 -45 124 -99 90 -101 207 -190 251 -190
18 0 43 -17 80 -55 54 -55 55 -55 116 -55 47 0 65 4 78 19 14 16 22 17 56 7
33 -8 45 -7 68 6 15 8 44 18 65 21 79 12 167 132 167 227 0 84 -5 90 -132 180
-137 97 -187 148 -278 281 -35 52 -78 110 -95 130 -78 87 -91 258 -41 514 36
184 91 419 111 474 35 101 81 318 125 596 35 222 35 212 -5 530 -37 295 -38
315 -26 488 6 89 16 232 21 317 14 217 65 463 119 574 63 128 145 423 280
1011 71 310 77 347 92 580 20 311 2 621 -57 970 -17 100 -26 202 -29 305 -2
85 -10 223 -17 305 -7 83 -12 236 -11 340 1 185 2 195 47 399 44 200 56 244
56 199 0 -39 41 -178 84 -287 40 -98 46 -123 51 -216 6 -101 9 -108 51 -182
28 -49 44 -90 44 -111 0 -60 31 -220 65 -332 26 -85 85 -214 252 -550 l218
-440 0 -180 c1 -206 9 -248 86 -466 73 -208 139 -327 240 -432 41 -43 52 -49
79 -45 26 4 33 0 51 -28 24 -39 75 -84 94 -84 8 0 23 10 34 21 l20 21 27 -21
c48 -38 94 -20 94 38 0 13 5 19 14 15 18 -7 44 20 53 54 3 15 -7 199 -22 409
-21 273 -26 386 -19 393 8 8 22 4 49 -14 20 -14 52 -28 69 -32 21 -3 38 -16
50 -34 18 -31 105 -78 161 -87 47 -7 75 11 75 49 0 56 -144 217 -294 331 -90
68 -210 134 -266 147 -40 10 -65 24 -96 54 -42 40 -44 47 -129 329 -93 309
-104 376 -105 618 0 52 -5 121 -11 153 -15 80 -84 248 -198 481 l-99 200 -5
160 c-6 176 -35 342 -83 475 -23 64 -28 95 -32 211 -4 118 -1 147 18 220 17
63 22 110 22 189 -1 123 -17 204 -72 375 -56 171 -111 278 -162 315 -52 38
-222 103 -348 134 -110 28 -155 48 -291 134 -52 33 -161 94 -244 136 -216 111
-255 154 -255 284 0 69 25 392 36 470 6 37 9 42 33 42 40 0 53 14 115 134 76
145 89 248 42 321 -15 22 -23 26 -49 23 -18 -3 -39 -8 -47 -12 -14 -6 -15 2
-6 61 7 58 5 88 -18 207 -19 94 -37 158 -58 200 -35 70 -148 188 -219 229
-105 61 -306 84 -443 51z m324 -34 c90 -25 162 -71 236 -154 73 -81 101 -141
131 -288 25 -122 26 -181 7 -291 l-7 -39 42 22 c60 30 83 24 99 -25 10 -30 11
-54 3 -96 -11 -62 -111 -273 -134 -282 -16 -6 -37 11 -37 30 0 7 -6 13 -14 13
-13 0 -28 -86 -40 -240 -3 -30 -10 -115 -16 -189 -13 -149 -9 -236 14 -278 29
-56 94 -104 261 -191 94 -49 215 -117 269 -152 54 -34 111 -67 126 -74 22 -9
6 -10 -86 -7 -115 3 -177 -4 -339 -39 -49 -10 -130 -24 -180 -29 l-90 -10 -41
44 c-22 25 -47 45 -56 45 -26 0 -38 24 -31 63 6 41 -16 87 -43 87 -14 0 -14 3
-4 15 10 13 10 19 -5 35 -16 18 -16 20 -2 20 21 0 23 37 2 59 -15 17 -26 94
-29 197 0 33 -7 68 -14 76 -17 21 -5 53 14 37 17 -14 36 -2 32 21 -2 12 24 48
68 97 108 120 119 148 144 386 5 54 16 108 24 120 7 12 21 46 31 75 15 48 16
55 1 77 -18 27 -21 99 -6 160 5 22 12 86 16 142 6 90 4 110 -16 172 -12 39
-46 106 -74 148 -89 135 -215 199 -411 210 -223 12 -382 -63 -498 -234 -71
-106 -104 -278 -72 -378 20 -62 33 -261 17 -251 -23 14 -25 -41 -2 -71 12 -17
25 -55 30 -93 5 -35 23 -116 39 -179 17 -64 33 -137 36 -163 8 -62 35 -93 123
-143 l71 -40 -21 -22 c-23 -25 -18 -64 6 -44 7 6 16 8 19 4 11 -10 8 -53 -3
-53 -14 0 -12 -20 7 -79 16 -50 16 -52 -5 -74 -12 -13 -22 -36 -22 -53 0 -16
-4 -43 -9 -61 -7 -24 -6 -35 5 -44 13 -10 12 -14 -2 -30 -9 -11 -14 -25 -10
-35 4 -11 -3 -27 -20 -45 -23 -24 -26 -34 -21 -68 5 -37 3 -41 -16 -41 -12 0
-31 -12 -42 -26 l-21 -27 -105 12 c-57 7 -133 16 -169 22 -36 5 -137 11 -225
13 -88 2 -179 7 -202 11 -37 7 -53 3 -120 -30 -43 -21 -97 -54 -119 -74 -23
-20 -54 -44 -68 -54 -33 -23 -35 -66 -3 -94 31 -28 48 -33 159 -48 60 -8 108
-20 125 -31 l28 -19 -25 -3 c-14 -2 -34 -13 -46 -23 -17 -16 -26 -18 -48 -9
-62 23 -123 10 -186 -41 -21 -17 -53 -34 -71 -38 -62 -12 -70 -39 -79 -232 -5
-96 -16 -214 -24 -264 -55 -308 -87 -423 -166 -600 -12 -27 -51 -129 -85 -226
-106 -296 -151 -396 -213 -477 -64 -84 -71 -121 -34 -172 l22 -30 -32 -29
c-31 -28 -32 -29 -15 -54 9 -14 25 -28 35 -31 15 -5 20 -20 25 -71 7 -69 20
-102 47 -122 14 -10 15 -21 8 -70 -4 -32 -14 -110 -23 -173 -8 -63 -22 -153
-30 -200 -14 -83 -25 -182 -66 -560 -11 -102 -28 -221 -38 -265 l-18 -80 -6
435 c-4 242 -11 464 -18 500 -15 92 -16 528 -1 615 7 39 19 135 27 215 13 136
17 154 70 290 40 103 74 216 115 392 33 137 73 287 91 335 17 49 34 112 36
142 3 35 14 69 31 95 22 35 27 58 33 146 13 200 57 368 139 530 69 137 158
253 349 453 l27 27 39 -21 c34 -18 51 -20 120 -15 l80 6 128 87 c70 49 182
126 250 171 106 73 125 90 143 130 11 26 28 53 37 61 15 12 17 38 17 203 l0
190 -29 33 c-29 33 -51 105 -51 165 0 27 -3 30 -33 30 -40 0 -67 26 -96 90
-36 81 -53 248 -31 305 13 35 59 32 77 -5 12 -25 40 -35 36 -14 -32 171 -31
272 3 372 37 112 81 187 138 239 58 52 183 118 271 144 87 25 240 25 335 -1z
m135 -1255 c-3 -22 -17 -58 -31 -80 l-25 -40 5 49 c3 27 6 73 6 102 0 43 5 59
23 77 l22 22 3 -45 c2 -25 1 -63 -3 -85z m-607 80 c19 -14 21 -24 19 -78 -1
-34 2 -75 7 -92 8 -26 7 -29 -6 -17 -39 32 -86 202 -56 202 7 0 23 -7 36 -15z
m302 -115 c0 -5 -4 -10 -10 -10 -5 0 -10 5 -10 10 0 6 5 10 10 10 6 0 10 -4
10 -10z m103 -75 c-10 -7 -23 -11 -30 -8 -22 9 -14 18 17 19 26 1 28 0 13 -11z
m47 5 c0 -5 -5 -10 -11 -10 -5 0 -7 5 -4 10 3 6 8 10 11 10 2 0 4 -4 4 -10z
m-230 -4 c0 -2 -7 -6 -15 -10 -8 -3 -15 -1 -15 4 0 6 7 10 15 10 8 0 15 -2 15
-4z m77 -53 c-3 -10 -5 -4 -5 12 0 17 2 24 5 18 2 -7 2 -21 0 -30z m-197 -763
c0 -5 -5 -10 -11 -10 -5 0 -7 5 -4 10 3 6 8 10 11 10 2 0 4 -4 4 -10z m50 -62
c0 -14 -46 -21 -70 -11 -9 4 0 9 25 13 22 4 41 8 43 9 1 0 2 -5 2 -11z m375 0
c-28 -17 -95 -17 -95 -1 0 9 17 13 58 13 48 -1 54 -2 37 -12z m1066 -42 c88
-23 257 -92 292 -119 18 -14 47 -51 64 -84 38 -70 114 -288 139 -398 24 -105
24 -290 0 -355 -36 -95 -30 -372 9 -450 17 -34 61 -226 75 -325 6 -44 13 -137
16 -207 l5 -128 104 -211 c57 -116 123 -258 146 -317 l41 -107 9 -195 c4 -107
11 -222 15 -255 5 -53 62 -256 155 -555 33 -109 72 -159 142 -183 23 -8 62
-22 87 -31 54 -19 195 -111 286 -186 82 -68 219 -234 210 -255 -15 -41 -160
12 -197 71 -14 24 -28 34 -45 34 -29 0 -75 22 -93 44 -18 22 -44 20 -66 -4
-18 -20 -18 -31 11 -408 30 -374 30 -442 3 -442 -5 0 -9 5 -9 10 0 6 5 10 10
10 14 0 7 119 -9 148 -6 11 -11 47 -11 80 0 33 -9 84 -20 118 -12 32 -21 85
-21 117 -1 41 -5 60 -15 64 -8 3 -14 16 -14 29 0 14 -12 48 -26 77 -40 78 -74
185 -74 232 0 22 -7 52 -17 65 -9 14 -10 19 -3 13 9 -9 47 -13 112 -13 59 0
98 -4 98 -10 0 -5 9 -10 19 -10 11 0 22 -9 26 -19 4 -12 19 -21 43 -26 27 -5
51 -21 87 -59 28 -28 63 -57 78 -64 15 -7 26 -16 23 -21 -10 -15 21 -33 50
-29 39 4 41 24 6 56 -16 15 -31 36 -33 46 -2 11 -13 24 -24 30 -11 6 -22 13
-25 16 -3 3 -24 18 -46 33 -23 16 -54 42 -69 58 -14 17 -32 28 -40 26 -7 -3
-17 5 -23 18 -12 26 -32 30 -175 39 -56 3 -81 1 -90 -9 -11 -11 -16 -10 -25 6
-8 12 -24 19 -41 19 -20 0 -28 5 -27 16 0 9 -8 21 -19 28 -11 6 -22 12 -24 13
-2 2 4 12 14 23 27 30 21 76 -24 171 -22 46 -52 127 -67 179 -84 308 -151 491
-250 691 -116 233 -117 238 -119 378 -2 110 -4 126 -21 140 -11 9 -18 24 -16
34 2 9 -5 32 -16 50 -11 17 -28 59 -37 92 -9 33 -38 96 -65 140 -121 200 -152
347 -170 791 -12 298 -22 402 -52 523 -15 62 -21 123 -22 216 -1 76 -7 139
-14 151 -15 29 -65 49 -88 36 -15 -8 -22 -5 -36 19 -16 27 -22 29 -75 29 -36
0 -75 -8 -101 -20 -35 -16 -47 -17 -63 -7 -25 16 -24 22 9 45 38 28 96 42 170
42 70 0 102 20 102 65 0 31 -55 94 -107 120 -21 10 -46 26 -56 34 -11 9 -31
21 -45 28 -28 13 -23 13 69 -11z m-1487 -38 c45 -25 57 -38 49 -51 -3 -4 -15
-1 -26 8 -12 9 -44 27 -72 40 -45 22 -47 24 -21 24 15 1 47 -9 70 -21z m504 5
c35 -15 36 -17 12 -20 -58 -9 -157 -36 -177 -48 -18 -12 -22 -12 -27 0 -9 25
5 45 30 45 13 0 24 4 24 8 0 13 41 31 73 31 15 1 44 -7 65 -16z m-1140 -39
c53 -8 150 -16 214 -16 113 -1 117 -2 107 -21 -6 -10 -9 -32 -7 -49 5 -33 -10
-49 -24 -24 -16 28 -62 18 -134 -29 -37 -25 -75 -45 -84 -45 -19 0 -39 -21
-60 -62 -22 -45 -33 -34 -25 25 17 107 4 137 -65 158 -30 9 -43 8 -68 -5 -39
-20 -60 -20 -125 -1 -73 21 -85 30 -71 52 8 13 29 19 80 24 125 10 163 9 262
-7z m1910 0 c62 -5 92 -11 92 -19 0 -22 -38 -62 -76 -80 -31 -14 -42 -15 -79
-5 -56 16 -98 6 -132 -32 -81 -91 -74 -87 -133 -76 -63 11 -85 21 -122 55 -18
18 -32 23 -47 18 -12 -3 -37 -1 -56 5 -32 10 -34 14 -28 43 3 18 7 34 9 36 2
2 56 5 121 7 83 3 146 11 213 28 108 28 113 28 238 20z m-1389 -59 c2 -3 -3
-5 -11 -5 -9 0 -30 -3 -47 -6 -26 -6 -31 -4 -31 13 0 11 3 22 6 26 6 6 71 -17
83 -28z m698 -31 c-3 -3 -12 -4 -19 -1 -8 3 -5 6 6 6 11 1 17 -2 13 -5z m-591
-71 c-7 -7 -87 -5 -95 3 -2 2 20 4 49 4 29 0 50 -3 46 -7z m-235 -60 c31 -19
37 -30 15 -30 -7 0 -34 -6 -60 -13 -51 -14 -61 -11 -52 17 5 15 29 31 64 42 2
1 17 -7 33 -16z m930 7 c10 -6 19 -20 19 -31 0 -19 -4 -21 -37 -15 -76 14 -79
16 -52 37 28 21 43 23 70 9z m-686 -128 c-2 -2 -37 2 -79 9 -41 7 -74 15 -71
17 2 3 30 8 62 11 51 6 60 5 75 -13 9 -12 15 -22 13 -24z m491 26 c78 -20 84
-23 58 -30 -41 -11 -194 -10 -194 2 0 11 31 50 40 50 5 0 48 -10 96 -22z
m-771 -82 c40 -11 46 -15 30 -21 -11 -4 -42 -15 -69 -26 -63 -24 -64 -24 -59
9 10 60 13 61 98 38z m995 -41 c0 -16 -9 -19 -36 -8 -16 6 -16 7 2 14 29 11
34 10 34 -6z m-703 -31 c25 -7 38 -44 20 -60 -22 -21 -123 -45 -149 -35 -14 5
-50 12 -82 16 -32 4 -54 11 -49 15 4 5 46 22 93 39 85 30 125 36 167 25z m581
-43 c45 -19 82 -37 82 -41 0 -3 -40 -14 -88 -24 l-89 -18 -89 31 c-93 32 -100
41 -61 74 35 30 142 20 245 -22z m873 -81 c60 -144 68 -179 108 -476 89 -670
91 -710 61 -1009 -6 -60 -17 -131 -25 -157 -8 -26 -15 -55 -15 -64 0 -26 40
-64 67 -64 18 0 23 -6 23 -25 0 -15 9 -31 25 -41 14 -9 25 -22 25 -29 0 -8 13
-35 29 -62 18 -29 36 -80 46 -131 9 -46 28 -115 41 -155 14 -40 45 -153 69
-252 57 -235 112 -415 174 -574 28 -71 51 -135 51 -142 0 -26 -397 788 -423
867 -39 117 -66 239 -73 329 -6 70 -12 89 -49 155 -41 71 -44 80 -50 180 -6
91 -13 120 -51 216 -24 62 -53 149 -65 195 -33 136 -52 200 -59 204 -4 2 -31
-107 -60 -243 -67 -312 -77 -444 -54 -727 8 -104 17 -268 20 -363 2 -110 11
-215 24 -289 62 -360 84 -735 61 -1043 -16 -209 -21 -241 -97 -570 -131 -569
-210 -852 -274 -986 -39 -82 -81 -254 -114 -469 -8 -49 -14 -79 -15 -66 -1 13
-12 39 -27 58 -43 57 -52 94 -64 262 -15 238 -18 223 119 786 21 88 61 221 89
296 33 87 54 165 62 220 14 109 36 201 104 437 60 210 90 285 148 376 21 33
38 66 38 75 0 9 -9 40 -21 70 -11 30 -19 66 -17 80 4 44 -66 131 -106 131 -42
0 -75 -18 -82 -45 l-6 -25 -30 21 c-18 13 -45 53 -68 100 -32 66 -36 80 -24
87 18 10 43 76 44 113 0 35 33 75 67 82 42 8 119 71 148 121 33 56 33 127 1
219 -72 203 -225 317 -426 317 -166 0 -290 -76 -330 -202 -10 -33 -15 -38 -43
-38 -21 0 -41 -10 -63 -31 l-33 -32 -5 34 c-3 19 -7 51 -9 72 l-3 37 44 0 c47
0 112 32 112 54 0 14 -41 36 -66 36 -8 0 -29 -7 -45 -16 -17 -8 -33 -13 -36
-10 -3 3 -7 30 -9 60 -3 52 -2 55 27 66 22 9 36 10 53 2 19 -8 30 -6 55 9 40
24 39 46 -1 64 -28 11 -38 11 -70 -2 -42 -17 -71 -12 -62 11 3 8 1 17 -5 21
-6 3 -11 21 -11 38 0 32 1 32 39 29 26 -3 48 2 66 14 l27 18 -28 24 c-21 19
-36 23 -63 19 l-36 -4 1 51 c2 98 1 96 37 96 18 0 38 5 45 12 18 18 -15 48
-53 48 -32 0 -32 0 -39 61 -8 69 -5 78 22 58 127 -94 225 -171 262 -205 54
-50 118 -94 136 -94 9 0 14 12 14 36 0 45 -36 81 -165 164 -111 72 -255 190
-276 227 -20 34 -9 53 31 53 36 0 119 -65 166 -130 33 -46 41 -51 122 -76 132
-41 198 -77 300 -165 51 -44 97 -77 102 -74 16 10 12 47 -8 80 l-19 30 28 17
c15 9 36 29 45 44 23 34 22 109 -1 153 -16 32 -16 34 4 55 37 40 55 148 29
174 -9 9 -6 18 14 39 36 38 48 73 39 114 -11 47 -26 74 -57 98 -24 19 -25 21
-10 50 9 16 16 50 16 75 0 36 -6 52 -30 79 -30 34 -30 35 -14 73 10 25 14 51
10 77 -6 33 -3 41 18 58 13 10 56 83 94 161 65 131 140 246 213 323 16 17 29
37 29 45 0 21 7 9 41 -70z m-2381 -101 c35 -68 62 -152 90 -282 21 -93 25
-101 81 -165 l59 -67 -26 -19 c-29 -22 -54 -66 -54 -98 0 -13 9 -37 19 -55 18
-29 18 -33 4 -45 -41 -34 -56 -134 -28 -188 14 -27 13 -31 -10 -66 -41 -60
-29 -149 26 -187 19 -14 19 -17 6 -39 -23 -36 -30 -84 -17 -122 13 -40 72 -96
100 -96 20 0 20 0 1 -19 -51 -51 -64 -101 -26 -101 8 0 40 22 70 50 65 59 139
98 254 134 115 36 206 92 269 165 29 33 65 69 80 79 l27 20 0 -54 c0 -30 -4
-54 -9 -54 -5 0 -37 -27 -72 -59 -36 -34 -107 -84 -166 -117 -57 -31 -122 -68
-146 -81 -49 -28 -75 -62 -70 -95 5 -35 33 -33 86 5 26 18 76 51 112 72 36 21
91 59 123 84 32 25 77 60 100 78 l42 32 6 -27 c3 -15 2 -35 -3 -44 -4 -9 -5
-31 -1 -49 6 -30 5 -32 -20 -25 -40 10 -79 -9 -75 -37 3 -19 8 -22 50 -20 l48
1 -2 -77 -2 -78 -33 10 c-38 12 -83 -3 -83 -28 0 -25 46 -48 85 -42 33 5 35 4
35 -21 0 -15 -3 -44 -6 -64 -7 -42 -17 -45 -70 -26 -27 9 -37 9 -58 -6 -29
-18 -35 -56 -12 -75 11 -9 24 -10 53 -1 21 7 50 10 63 8 23 -3 25 -7 24 -61
-1 -32 -4 -60 -6 -63 -3 -2 -17 0 -31 7 -15 7 -40 9 -61 5 -30 -6 -36 -11 -36
-32 0 -18 8 -27 28 -35 28 -11 67 -14 91 -8 18 5 24 -73 9 -113 l-10 -27 -48
32 c-29 20 -52 44 -59 64 -7 18 -34 52 -61 76 -60 54 -142 83 -280 98 -117 14
-169 4 -237 -42 -55 -38 -141 -141 -184 -222 -29 -53 -34 -72 -34 -132 0 -38
6 -84 13 -101 15 -36 93 -84 136 -84 23 0 26 -4 26 -32 1 -31 8 -54 41 -134
11 -28 10 -33 -9 -52 -13 -13 -22 -35 -22 -52 0 -79 -83 -158 -136 -130 -51
28 -144 -10 -144 -58 0 -16 -11 -61 -25 -100 -14 -39 -25 -78 -25 -86 0 -8 16
-38 36 -67 56 -82 97 -178 152 -354 66 -210 96 -323 126 -475 14 -69 39 -172
55 -230 69 -244 144 -562 166 -700 33 -212 26 -504 -16 -619 -12 -31 -31 -84
-44 -118 l-22 -63 -12 101 c-6 55 -11 123 -11 152 0 36 -14 95 -45 187 -170
504 -330 1078 -365 1305 -25 168 -57 940 -39 961 19 23 39 191 39 326 0 120 2
131 35 218 44 116 51 160 34 212 -17 54 -1 166 45 301 53 157 59 202 52 372
-6 122 -14 176 -42 287 -33 135 -34 140 -34 355 l-1 218 -29 -35 c-46 -55
-106 -185 -135 -295 -34 -129 -68 -214 -118 -295 -91 -149 -81 -102 -88 -425
-7 -324 -16 -395 -103 -750 -25 -99 -50 -218 -56 -265 -6 -47 -18 -107 -27
-133 -10 -33 -14 -78 -11 -146 l3 -98 78 -89 c44 -51 98 -127 125 -177 26 -49
69 -125 95 -170 42 -72 44 -78 18 -53 -17 16 -43 53 -58 82 -15 30 -31 54 -34
54 -4 0 -44 38 -90 85 -70 72 -87 85 -115 85 -36 0 -50 14 -46 45 2 15 -7 26
-33 38 -26 12 -35 23 -34 39 1 17 3 18 6 6 6 -24 42 -33 59 -16 13 12 13 38 3
174 -9 119 -9 219 -1 399 6 132 9 251 7 265 -3 14 -12 81 -20 150 -9 69 -28
167 -41 218 l-25 93 20 72 c12 39 37 94 56 122 35 52 43 79 25 90 -5 3 -1 14
10 25 11 11 20 29 20 40 0 19 11 24 65 32 14 2 25 18 37 53 l16 50 -37 45
c-70 84 -69 81 -61 230 6 116 11 148 39 225 90 251 133 385 176 540 25 94 55
202 67 240 28 98 106 293 135 338 l24 37 40 -32 c23 -19 54 -58 69 -89z m600
41 c9 -6 10 -10 3 -10 -6 0 -18 -3 -27 -6 -11 -4 -16 -1 -16 10 0 18 17 21 40
6z m303 -41 c20 -5 37 -13 37 -17 0 -11 -47 -37 -110 -62 -49 -19 -60 -20
-122 -10 -37 7 -70 15 -73 20 -3 4 32 21 77 38 46 16 90 32 98 35 24 9 52 8
93 -4z m606 -52 c68 -28 72 -31 50 -39 -13 -5 -54 -12 -90 -15 -65 -6 -69 -4
-144 38 l-77 44 58 5 c83 8 118 2 203 -33z m-931 -117 c26 -7 26 -8 -21 -29
-26 -13 -52 -21 -57 -19 -6 2 -1 18 10 36 11 18 25 30 31 26 6 -3 23 -10 37
-14z m1052 -30 c0 -13 -11 -13 -30 0 -12 8 -11 10 8 10 12 0 22 -4 22 -10z
m-173 -44 c43 -18 100 -41 126 -51 26 -10 44 -22 40 -26 -4 -4 -34 -9 -65 -10
-49 -2 -77 6 -192 52 -75 30 -136 57 -136 62 0 4 34 7 75 7 62 0 87 -5 152
-34z m-565 12 c-4 -3 -65 -29 -135 -57 -122 -49 -130 -51 -172 -40 -25 6 -48
15 -50 19 -3 5 25 18 62 29 38 12 82 26 98 32 56 21 215 35 197 17z m356 -167
c49 -60 42 -80 -12 -36 -32 26 -43 41 -39 55 7 28 15 25 51 -19z m-788 -8 c0
-10 -109 -57 -115 -51 -9 8 69 56 93 57 12 1 22 -2 22 -6z m1340 -5 c72 -12
80 -20 64 -61 -4 -12 -20 -9 -90 21 -119 52 -111 64 26 40z m-223 -77 c59 -27
119 -52 133 -56 l25 -8 -23 -8 c-13 -5 -60 -10 -105 -11 -73 -2 -86 0 -122 24
-49 31 -95 74 -95 87 0 5 6 12 13 14 32 13 73 3 174 -42z m-767 29 c0 -27
-132 -90 -188 -90 -20 0 -59 6 -85 13 l-48 12 83 37 c73 31 93 36 161 35 42 0
77 -3 77 -7z m420 -171 c0 -5 -4 -9 -8 -9 -9 0 -32 44 -32 58 1 10 40 -38 40
-49z m-840 29 c22 -7 40 -15 40 -18 0 -9 -122 -40 -132 -34 -13 8 -9 23 12 44
23 23 28 24 80 8z m390 -23 c0 -35 -54 -75 -130 -95 -41 -11 -93 -25 -116 -32
-33 -9 -51 -9 -88 2 -26 7 -43 16 -39 20 4 4 58 20 118 36 61 15 137 40 170
56 69 31 85 34 85 13z m1107 -7 c26 -25 28 -37 10 -62 -12 -17 -19 -16 -126
10 l-113 28 68 14 c38 7 75 18 84 22 25 15 53 11 77 -12z m-938 -136 c-2 -47
-3 -47 -38 -48 -34 -1 -36 1 -37 31 0 27 5 36 30 48 46 22 47 21 45 -31z m656
28 c25 -11 -1 -11 -35 0 -20 6 -21 8 -5 8 11 0 29 -3 40 -8z m-343 -12 c14
-12 42 -77 35 -84 -1 -1 -19 3 -39 9 -28 9 -39 18 -43 39 -10 45 13 62 47 36z
m-946 -54 l43 -16 -57 -28 c-31 -16 -59 -27 -64 -24 -14 9 -9 47 9 66 20 22
17 22 69 2z m1360 -94 c56 -21 114 -45 130 -53 28 -15 26 -15 -56 -22 -48 -4
-104 -2 -128 3 -65 15 -182 112 -182 152 0 5 30 -2 68 -16 37 -14 113 -43 168
-64z m252 64 c23 -16 31 -67 13 -79 -5 -3 -30 8 -54 25 -25 16 -51 30 -58 31
-12 0 55 36 71 38 3 1 16 -6 28 -15z m-1238 -10 c0 -22 -52 -71 -98 -92 -49
-22 -64 -24 -144 -20 -84 5 -108 11 -96 23 5 5 157 62 228 85 29 10 110 13
110 4z m-748 -211 c-3 -165 -2 -170 35 -318 37 -146 37 -155 38 -335 l0 -185
-42 -121 c-50 -144 -73 -279 -55 -319 20 -44 14 -93 -28 -199 -40 -102 -40
-103 -40 -240 0 -150 -14 -269 -36 -303 -12 -19 -11 -71 2 -368 8 -190 14
-351 11 -358 -6 -20 -73 81 -154 233 -43 80 -94 163 -114 185 -19 22 -57 66
-82 98 l-47 58 0 93 c0 51 6 112 14 137 7 24 19 83 25 130 6 48 31 165 55 260
82 326 99 447 105 764 l6 280 50 75 c63 97 106 197 145 339 28 103 94 261 109
261 3 0 5 -75 3 -167z m991 51 c-4 -31 -9 -41 -19 -37 -17 6 -45 -11 -159
-103 -87 -69 -142 -103 -195 -119 -22 -7 -21 -3 15 36 22 24 61 71 86 104 57
74 158 162 218 192 l46 22 7 -26 c4 -15 5 -45 1 -69z m363 50 c21 -15 62 -48
91 -75 28 -27 61 -49 72 -49 14 0 25 -11 36 -36 8 -20 31 -59 50 -86 l35 -49
-39 20 c-21 11 -67 45 -102 75 -69 60 -164 116 -198 116 -18 0 -21 6 -21 48 0
72 13 78 76 36z m-992 -83 l49 -17 -38 -22 c-22 -14 -45 -20 -57 -16 -32 10
-45 75 -14 73 6 0 33 -8 60 -18z m1616 -25 c0 -16 -24 -66 -32 -66 -5 0 -26
12 -46 28 l-36 27 40 6 c52 8 74 10 74 5z m-1572 -196 c15 0 21 -4 16 -11 -5
-8 3 -10 25 -7 57 8 27 -23 -41 -43 -39 -11 -78 7 -78 36 0 29 10 37 35 31 11
-3 30 -6 43 -6z m1541 -48 c15 -32 -20 -66 -57 -57 -28 7 -94 63 -88 74 3 3
34 6 70 6 58 0 66 -2 75 -23z m982 -419 c13 -16 12 -17 -3 -4 -10 7 -18 15
-18 17 0 8 8 3 21 -13z m16 -90 c-3 -10 -5 -2 -5 17 0 19 2 27 5 18 2 -10 2
-26 0 -35z m187 -530 c38 -82 81 -195 106 -278 l40 -140 -2 -179 -3 -180 -26
55 c-38 77 -83 222 -144 459 -23 93 -50 275 -60 415 l-5 70 14 -42 c8 -23 44
-104 80 -180z m-3843 -499 c-10 -185 -14 -205 -62 -282 l-27 -43 -12 37 c-15
44 -9 106 25 246 24 101 40 196 67 408 l13 105 3 -145 c2 -80 -1 -226 -7 -326z
m1705 335 c14 -23 -13 -30 -37 -10 l-24 20 27 1 c15 0 30 -5 34 -11z m305 -9
c-26 -22 -37 -25 -46 -10 -11 18 5 30 38 30 l32 -1 -24 -19z m-443 -36 c27 -6
52 -57 52 -108 0 -54 15 -82 52 -95 79 -30 82 -32 69 -41 -19 -11 -6 -60 17
-60 16 0 45 -33 47 -55 1 -12 13 -44 24 -65 13 -25 46 -18 49 10 2 14 9 31 14
38 7 8 7 16 -1 26 -9 10 -8 15 4 19 8 4 12 13 9 22 -4 9 0 15 10 15 21 0 41
39 27 53 -7 7 8 20 47 44 66 40 67 42 88 110 19 66 40 90 85 96 33 5 38 2 62
-36 43 -66 37 -98 -32 -170 -71 -76 -80 -98 -49 -127 l23 -21 -91 -89 c-97
-96 -116 -104 -180 -80 -16 6 -30 7 -33 2 -10 -14 -59 -23 -63 -11 -2 7 -17 6
-48 -2 l-45 -12 -114 112 -114 111 17 33 c28 50 18 76 -46 125 -78 59 -78 91
1 145 33 22 55 24 119 11z m132 -24 c0 -5 -9 -10 -19 -10 -11 0 -23 5 -26 10
-4 6 5 10 19 10 14 0 26 -4 26 -10z m315 0 c-3 -5 -15 -10 -26 -10 -10 0 -19
5 -19 10 0 6 12 10 26 10 14 0 23 -4 19 -10z m-310 -62 c14 -6 25 -15 25 -20
0 -15 -27 -8 -45 12 -21 23 -16 25 20 8z m286 -8 c-13 -11 -31 -20 -40 -20
-12 1 -11 5 8 20 13 11 31 20 40 20 12 -1 11 -5 -8 -20z m-276 -60 c3 -5 -1
-10 -9 -10 -9 0 -16 5 -16 10 0 6 4 10 9 10 6 0 13 -4 16 -10z m265 0 c0 -5
-4 -10 -10 -10 -5 0 -10 5 -10 10 0 6 5 10 10 10 6 0 10 -4 10 -10z m-759
-331 c4 -13 4 -54 2 -90 -4 -40 -1 -74 6 -87 18 -33 139 -121 185 -133 51 -14
174 -6 212 14 16 9 51 34 78 56 26 23 56 41 65 42 101 6 103 6 170 -38 170
-110 357 -119 448 -21 31 33 43 70 50 153 8 94 10 98 54 84 61 -19 79 -32 110
-78 26 -38 30 -53 26 -89 -3 -25 -14 -53 -26 -66 -22 -23 -28 -61 -12 -71 5
-3 15 -30 22 -59 11 -49 9 -63 -14 -148 -15 -51 -31 -121 -36 -156 -11 -67
-55 -217 -131 -437 -49 -143 -63 -197 -124 -481 -20 -89 -55 -224 -80 -300
-24 -76 -56 -179 -71 -229 -49 -163 -126 -341 -201 -467 -31 -51 -35 -66 -39
-146 -4 -79 -2 -94 19 -135 l23 -47 -23 -15 c-20 -13 -23 -23 -22 -72 0 -32
-5 -69 -11 -83 -11 -24 -11 -24 -7 7 3 17 -6 70 -19 120 -23 80 -25 106 -25
293 0 113 5 340 11 505 13 398 2 1145 -18 1145 -8 0 -13 -12 -13 -32 0 -18 -7
-157 -15 -308 -10 -185 -14 -479 -14 -900 0 -528 -2 -640 -16 -720 -8 -52 -21
-143 -27 -202 -11 -103 -10 -111 14 -195 14 -49 28 -99 31 -113 14 -60 -13
-602 -47 -960 -41 -435 -44 -579 -16 -741 11 -63 20 -123 19 -134 0 -19 -1
-19 -9 1 -4 11 -11 47 -15 80 -4 32 -17 100 -30 149 -39 153 -47 234 -40 404
4 106 2 226 -9 375 -30 416 -22 551 55 961 31 162 38 222 33 260 -4 28 -6 65
-5 83 3 35 -21 72 -46 72 -7 0 -13 5 -13 10 0 6 4 10 9 10 13 0 58 99 75 166
l15 58 -56 94 c-79 133 -137 276 -241 602 -59 181 -191 613 -261 850 -59 200
-68 235 -130 485 -17 66 -38 145 -48 175 -15 44 -18 85 -17 205 1 132 4 156
23 202 27 61 60 94 109 109 47 15 55 13 63 -17z m202 10 c12 -7 64 -44 116
-83 l94 -71 -39 -7 c-61 -11 -134 1 -160 27 -23 23 -44 82 -44 123 0 25 3 26
33 11z m847 -60 c0 -88 -47 -139 -130 -139 -32 0 -48 7 -77 34 -33 30 -36 36
-23 50 31 39 200 113 223 99 4 -2 7 -22 7 -44z m1680 -163 c-36 -66 -38 -109
-7 -140 19 -19 21 -25 9 -36 -11 -10 -13 -31 -7 -97 4 -47 11 -99 16 -116 5
-18 9 -51 9 -74 0 -23 5 -45 10 -48 6 -3 10 -18 10 -32 0 -13 9 -37 19 -52 19
-26 57 -138 53 -154 -1 -5 7 -20 18 -34 11 -14 20 -36 20 -49 0 -18 6 -24 21
-24 18 0 20 -2 8 -16 -10 -13 -10 -17 2 -25 8 -5 17 -9 22 -9 4 0 7 -8 7 -19
0 -22 25 -45 40 -36 15 9 12 45 -5 51 -8 4 -15 17 -15 30 0 13 -4 24 -8 24 -9
0 -32 80 -32 110 0 11 -3 20 -8 20 -4 0 -17 26 -29 58 -30 78 -35 98 -35 139
0 19 -8 49 -18 67 -24 43 -46 197 -32 222 7 11 12 14 12 6 0 -8 8 -26 19 -40
25 -36 61 -155 61 -204 0 -24 8 -51 21 -69 11 -16 17 -34 14 -39 -4 -6 1 -22
10 -36 23 -36 55 -131 55 -166 0 -17 16 -53 38 -86 41 -62 72 -125 72 -146 0
-8 6 -16 14 -19 8 -3 16 -16 18 -29 4 -31 48 -39 48 -9 0 11 -5 23 -11 27 -6
3 -8 17 -5 30 4 14 2 24 -4 24 -5 0 -10 8 -10 18 0 10 -7 28 -16 41 -38 53
-103 268 -104 339 0 28 -4 42 -13 42 -9 0 -14 12 -14 31 0 20 -7 37 -21 48
-27 21 -72 140 -72 192 0 22 -7 54 -16 70 -15 31 -13 59 5 59 5 0 12 -12 15
-26 4 -14 18 -42 31 -62 27 -42 75 -198 75 -247 0 -19 8 -39 20 -50 11 -10 20
-29 20 -42 0 -13 9 -36 19 -51 11 -15 29 -63 41 -106 12 -44 26 -87 30 -95 4
-9 17 -34 28 -56 11 -22 26 -61 32 -87 7 -26 18 -53 26 -59 8 -6 14 -21 14
-32 0 -20 0 -20 -24 2 l-24 23 -12 -36 c-6 -20 -17 -36 -25 -36 -15 0 -64 53
-91 99 -19 33 -29 38 -39 21 -21 -33 -83 19 -162 135 -60 89 -89 153 -148 319
-72 208 -89 303 -80 449 6 104 8 114 25 110 12 -3 22 3 29 16 7 12 22 21 36
21 l24 0 -29 -54z m-4041 -36 c-14 -4 -39 -16 -55 -26 -32 -20 -124 -113 -124
-125 0 -21 15 -42 37 -50 26 -10 27 -36 1 -31 -27 4 -37 -22 -48 -124 -6 -54
-17 -122 -24 -150 -14 -52 -11 -110 6 -120 5 -3 4 -11 -2 -19 -8 -10 -6 -23 9
-53 19 -37 38 -132 33 -160 -2 -7 4 -20 13 -29 11 -11 16 -30 14 -64 -2 -26 2
-53 8 -61 6 -7 13 -24 15 -38 1 -14 10 -25 18 -25 12 0 14 13 12 70 -6 124
-14 190 -25 204 -11 13 -17 138 -16 311 0 68 17 182 29 194 17 17 23 -109 10
-220 -8 -76 -9 -118 -2 -130 7 -12 6 -23 -1 -35 -8 -13 -5 -29 12 -68 14 -33
23 -77 25 -124 1 -40 5 -79 8 -87 22 -58 38 -128 38 -161 0 -21 5 -41 10 -44
6 -3 10 -18 10 -33 l-1 -27 -13 25 c-7 14 -16 46 -20 71 l-7 47 -37 -4 c-22
-3 -44 1 -54 9 -12 9 -36 83 -68 206 -45 171 -52 212 -62 359 l-11 167 37 134
c21 74 36 147 34 163 -5 30 6 38 16 13 8 -23 25 -18 53 14 24 27 32 29 87 29
44 0 54 -2 35 -8z m4402 -136 c31 -46 47 -100 69 -242 7 -40 17 -78 24 -85 7
-6 10 -21 8 -34 -3 -13 3 -32 12 -42 20 -22 46 -106 46 -151 0 -19 9 -52 20
-73 11 -21 23 -59 26 -85 3 -26 8 -54 12 -62 3 -8 6 -36 6 -62 1 -52 -16 -60
-24 -12 -3 16 -12 43 -22 59 -9 17 -19 52 -23 78 -4 27 -18 70 -30 95 -31 64
-45 118 -45 173 0 27 -6 51 -14 58 -7 6 -11 21 -9 34 3 15 -6 36 -27 62 -43
54 -65 99 -79 165 -7 30 -18 78 -25 107 -14 56 -17 51 36 62 4 0 21 -20 39
-45z m-4102 -100 c60 -35 91 -63 91 -85 0 -9 27 -40 60 -69 36 -31 60 -60 60
-72 0 -24 39 -68 60 -68 8 0 21 -10 29 -21 11 -19 11 -21 -4 -15 -9 3 -21 6
-27 6 -5 0 -40 29 -78 65 l-67 66 -7 -68 c-8 -85 -57 -355 -66 -366 -3 -4 -5
28 -4 70 3 100 10 173 18 180 15 16 3 62 -27 100 -44 54 -89 155 -95 212 -2
26 -9 52 -15 59 -8 10 -7 16 4 23 19 12 16 12 68 -17z m-259 -59 c0 -9 9 -41
19 -73 15 -43 20 -91 22 -197 2 -90 8 -152 17 -174 12 -30 18 -97 26 -321 1
-36 -2 -68 -8 -72 -6 -4 -6 -15 2 -33 18 -39 15 -48 -12 -41 -15 4 -26 1 -29
-7 -3 -7 -6 -5 -6 6 -1 9 -5 17 -11 17 -6 0 -6 9 0 24 4 13 6 36 4 52 -2 16
-9 65 -13 109 -5 44 -15 94 -22 110 -6 17 -13 74 -14 127 -1 54 -4 100 -7 104
-4 3 -2 18 4 34 7 21 6 36 -5 57 -23 45 -27 135 -10 195 8 29 14 63 14 76 0
13 5 22 14 22 8 0 15 -7 15 -15z m138 -58 c41 -68 72 -156 72 -204 0 -21 4
-44 9 -52 6 -9 4 -19 -5 -29 -9 -8 -12 -22 -8 -31 26 -64 28 -72 18 -141 -5
-39 -7 -97 -4 -128 4 -36 2 -68 -5 -87 -7 -16 -10 -35 -8 -42 5 -15 -24 -73
-37 -73 -6 0 -10 -17 -10 -37 0 -52 -20 -87 -50 -91 l-25 -3 25 13 c18 10 26
23 28 48 1 19 7 76 13 125 10 85 12 144 7 218 -1 17 -1 68 1 112 3 94 -3 137
-29 185 -10 19 -23 67 -29 105 -11 69 -11 165 -1 165 3 0 20 -24 38 -53z m447
-138 c11 -17 -1 -21 -15 -4 -8 9 -8 15 -2 15 6 0 14 -5 17 -11z m-305 -506
c-11 -17 -11 -17 -6 0 3 10 6 24 7 30 0 9 2 9 5 0 3 -7 0 -20 -6 -30z m1601
-879 c-12 -52 -14 111 -3 382 l7 199 3 -271 c1 -149 -2 -289 -7 -310z m719
-791 c0 -31 -3 -43 -9 -34 -6 9 -21 11 -52 7 -38 -5 -41 -4 -25 6 11 7 33 25
50 40 17 15 32 28 34 28 1 0 2 -21 2 -47z m-1386 -34 c15 -6 11 -7 -16 -3
l-38 6 0 -85 c0 -47 4 -97 9 -111 8 -19 5 -35 -11 -67 -29 -60 -34 -109 -14
-147 9 -18 20 -32 24 -32 4 0 5 -32 4 -72 -5 -87 13 -268 38 -398 28 -145 28
-149 50 -395 28 -322 37 -403 61 -540 28 -153 44 -342 25 -284 -23 71 -109
481 -121 579 -16 129 -37 217 -60 254 -17 28 -60 249 -81 415 -20 169 -16 413
9 482 19 53 42 211 52 356 l8 102 20 -25 c11 -14 29 -30 41 -35z m686 -38 c10
-39 18 -94 18 -122 1 -28 6 -74 12 -104 11 -52 1 -104 -47 -245 -3 -8 -16 21
-29 65 -28 94 -31 188 -9 290 8 39 18 98 21 133 4 34 9 61 11 58 3 -2 13 -36
23 -75z m-233 43 c-3 -3 -12 -4 -19 -1 -8 3 -5 6 6 6 11 1 17 -2 13 -5z m363
-667 c25 -170 26 -418 5 -694 -8 -105 -17 -274 -20 -375 -4 -167 -19 -320 -44
-453 -11 -57 -71 -249 -76 -243 -2 1 7 63 21 137 22 126 23 145 14 315 -5 100
-12 213 -16 251 -7 88 -18 605 -19 920 0 233 1 243 27 332 49 163 48 162 69
48 10 -55 28 -162 39 -238z m440 237 c-6 -14 -10 -46 -10 -72 0 -49 -21 -287
-41 -452 -6 -52 -24 -162 -40 -245 -30 -158 -60 -364 -79 -530 -37 -343 -49
-480 -44 -517 2 -24 0 -56 -6 -73 -7 -21 -9 55 -5 270 4 233 10 323 24 405 59
325 62 348 71 605 13 325 40 486 102 608 21 42 43 42 28 1z m-1114 -164 c27
-106 44 -268 44 -436 0 -153 17 -342 41 -471 41 -219 48 -302 49 -578 0 -148
-3 -287 -6 -307 -12 -71 -22 -38 -23 80 -3 238 -54 772 -101 1047 -38 224 -70
551 -70 712 0 39 -4 83 -9 97 -7 17 -7 26 2 29 16 5 45 -61 73 -173z m1248
143 c24 -152 39 -304 40 -398 1 -177 -66 -530 -170 -905 -14 -51 -43 -175 -63
-275 l-38 -180 -7 62 c-8 72 -3 123 29 288 27 135 57 361 85 635 11 102 33
251 49 330 28 134 54 364 51 435 -3 40 -2 45 9 45 5 0 12 -17 15 -37z m-722
-785 c2 -46 -1 -101 -5 -123 -5 -23 1 -194 14 -420 20 -361 20 -384 4 -470 -9
-49 -22 -126 -29 -170 l-12 -80 -8 65 c-5 36 -17 112 -27 169 -12 67 -19 152
-19 235 -1 140 60 876 72 876 4 0 8 -37 10 -82z m-551 -1293 c-9 -32 -5 -105
6 -105 2 0 19 7 38 14 32 14 35 14 35 -2 -1 -27 -72 -98 -121 -121 -62 -29
-99 -67 -199 -204 -47 -64 -90 -117 -95 -117 -6 0 -26 -16 -44 -36 -19 -19
-45 -43 -58 -51 -13 -9 -35 -40 -49 -70 -31 -65 -49 -59 -38 13 6 43 16 58 78
122 39 40 88 81 111 91 49 23 83 59 213 228 92 119 102 136 102 174 0 44 21
130 28 111 2 -6 -1 -27 -7 -47z m532 -117 c5 -56 -11 -160 -28 -176 -3 -3 -5
38 -5 90 0 156 21 212 33 86z m533 16 c8 -16 28 -42 43 -59 15 -16 38 -46 51
-65 l24 -35 -25 22 c-14 13 -40 28 -59 34 -19 7 -47 20 -62 31 -14 10 -32 18
-38 18 -9 0 -11 10 -6 31 3 17 6 37 6 43 0 6 11 11 26 11 17 -1 30 -11 40 -31z
m-589 -36 c-3 -8 -6 -5 -6 6 -1 11 2 17 5 13 3 -3 4 -12 1 -19z m108 -60 c9
-55 9 -81 0 -144 -7 -51 -7 -51 34 -84 22 -18 43 -40 46 -49 5 -16 62 -57 146
-104 47 -26 179 -164 179 -186 0 -6 10 -11 23 -11 26 0 77 -48 77 -72 0 -18
56 -63 80 -63 8 0 21 -12 28 -27 15 -33 37 -36 52 -9 12 24 4 48 -21 62 -11 5
-19 20 -19 35 0 13 -7 27 -15 30 -8 4 -15 12 -15 19 0 7 -11 20 -25 29 -13 9
-32 38 -42 66 -10 27 -21 50 -26 50 -4 0 -12 11 -17 25 -6 15 -29 33 -64 50
-30 14 -67 40 -81 57 -29 34 -69 108 -59 108 16 0 105 -74 157 -132 85 -94 91
-102 102 -130 6 -15 30 -41 54 -60 25 -18 52 -46 60 -62 9 -15 34 -38 56 -50
22 -13 46 -35 53 -50 8 -15 20 -30 28 -33 8 -3 11 -9 8 -14 -10 -17 -53 -9
-83 17 l-31 26 0 -24 c0 -36 -19 -48 -75 -48 -48 0 -54 3 -100 50 -35 36 -60
52 -91 58 -52 11 -102 50 -224 173 -52 53 -107 99 -121 102 -42 10 -93 50
-111 87 -24 47 -23 153 1 254 11 44 16 86 13 94 -3 9 -1 13 5 9 6 -4 14 -26
18 -49z m-109 -38 c-1 -52 -12 -66 -21 -27 -5 20 8 77 18 77 2 0 4 -22 3 -50z
m0 -234 c-12 -30 -44 -66 -120 -134 -57 -51 -123 -118 -147 -148 -24 -30 -73
-73 -109 -96 -36 -23 -82 -56 -102 -74 -42 -35 -106 -58 -134 -48 -11 4 -34
21 -51 37 l-33 31 -28 -27 c-37 -36 -61 -35 -75 3 -10 27 -16 30 -55 30 -47 0
-48 2 -27 52 6 16 4 17 -26 6 -28 -9 -34 -8 -46 7 -16 23 -17 49 -2 78 17 31
99 112 129 126 22 11 22 9 -5 -14 -66 -57 -88 -82 -81 -94 4 -5 -3 -19 -15
-29 -23 -22 -22 -57 1 -57 8 0 21 12 28 28 7 15 20 27 28 27 8 0 18 8 21 18
10 26 55 72 88 89 l30 15 -32 -34 c-18 -19 -33 -39 -33 -46 0 -7 -7 -12 -15
-12 -9 0 -15 -9 -15 -24 0 -14 -7 -31 -15 -40 -27 -26 -36 -63 -19 -77 12 -10
19 -8 38 10 13 12 23 29 22 38 0 8 8 20 19 27 11 6 25 18 31 26 7 8 15 12 18
9 8 -8 -22 -67 -45 -90 -23 -23 -24 -42 -5 -58 12 -10 18 -8 33 9 10 12 34 37
53 55 19 19 44 43 55 55 11 12 44 45 73 73 28 29 52 60 52 70 0 10 7 20 15 24
9 3 24 22 35 42 18 37 132 150 170 171 30 16 26 -9 -9 -56 -38 -52 -68 -78
-116 -101 -23 -10 -41 -26 -44 -38 -2 -11 -9 -24 -16 -30 -6 -5 -20 -31 -29
-58 -10 -26 -26 -52 -37 -57 -10 -6 -19 -17 -19 -24 0 -8 -7 -16 -15 -20 -8
-3 -15 -16 -15 -28 0 -13 -9 -29 -20 -36 -22 -14 -26 -42 -8 -60 19 -19 36
-14 50 16 7 15 20 27 29 27 21 0 69 40 69 57 0 22 31 59 60 72 15 6 49 38 77
71 75 90 111 123 162 150 25 13 63 41 84 62 21 21 51 52 68 68 16 17 30 37 31
45 1 8 3 -5 5 -29 3 -26 -2 -62 -11 -85z m944 -51 c0 -12 -19 -12 -23 0 -4 9
-1 12 9 8 7 -3 14 -7 14 -8z m107 -80 c67 -51 73 -58 73 -91 0 -30 -3 -34 -14
-25 -7 6 -16 25 -19 41 -4 20 -23 41 -61 69 -53 40 -74 61 -60 61 4 0 40 -25
81 -55z m-76 -33 c14 -9 49 -41 77 -70 29 -29 57 -50 62 -47 15 10 0 -57 -20
-85 -9 -14 -29 -26 -43 -28 -18 -2 -24 -8 -20 -18 9 -24 -17 -44 -58 -44 -29
0 -37 3 -33 15 3 8 -5 25 -19 39 -32 32 -58 84 -46 92 5 3 12 -2 15 -10 3 -9
11 -16 17 -16 17 0 46 -31 41 -44 -7 -17 32 -50 51 -43 23 9 18 51 -10 77 -14
13 -25 33 -25 45 0 11 -8 28 -17 37 -77 74 -89 92 -43 68 19 -10 77 -65 82
-78 8 -18 85 -91 91 -85 14 13 6 49 -13 66 -11 9 -20 25 -20 35 0 16 -40 57
-95 97 -29 21 -5 18 26 -3z"/>
</g>
</svg>
